<?xml version="1.0" encoding="utf-8"?>
<!-- Generator: Adobe Illustrator 27.5.0, SVG Export Plug-In . SVG Version: 6.00 Build 0)  -->
<svg version="1.1" xmlns="http://www.w3.org/2000/svg" xmlns:xlink="http://www.w3.org/1999/xlink" x="0px" y="0px"
	 viewBox="0 0 792 612" style="enable-background:new 0 0 792 612;" xml:space="preserve">
<style type="text/css">
	.st0{fill:#FFFFFF;stroke:#000000;stroke-miterlimit:10;}
	.st1{fill:#FDCF00;stroke:#000000;stroke-miterlimit:10;}
</style>
<g id="레이어_2">
	<polygon class="st0" points="110.19,255.85 110.19,262.23 117.34,262.23 117.34,328.11 110.19,328.11 110.19,331.43 153.6,331.43 
		153.6,328.62 146.19,328.62 146.45,298.49 167.89,298.74 167.89,328.11 157.68,328.36 157.68,331.43 204.91,331.43 204.91,328.62 
		197,328.36 197.51,262.23 204.91,262.23 204.91,255.85 157.55,255.85 157.55,262.23 168.4,262.49 168.15,288.53 146.45,288.53 
		146.45,262.23 153.85,261.98 154.11,255.85 	"/>
	<path class="st0" d="M295.04,328.62l-33.45-75.57h-15.32l-35.23,75.32h-3.06v3.06h26.04v-3.06h-10.98l10.98-20.68h17.87l7.15,20.68
		h-7.66v3.06h47.49v-2.55L295.04,328.62z M235.3,304.11l7.91-19.66h2.55l5.36,19.66H235.3z"/>
	<polygon class="st0" points="302.96,255.85 302.96,262.49 309.34,262.49 309.34,325.3 302.96,325.3 302.96,331.43 374.7,331.43 
		374.7,305.13 371.13,305.38 350.19,325.81 338.83,325.55 338.83,298.49 345.6,298.49 353.51,310.49 360.66,310.23 360.66,278.06 
		353.77,277.81 345.85,289.3 338.83,289.04 338.83,262.23 349.68,261.98 368.32,280.36 371.64,280.36 371.64,255.85 	"/>
	<polygon class="st0" points="379.3,255.85 379.3,262.74 385.68,262.74 415.04,331.43 432.66,331.43 445.94,293.64 462.53,331.43 
		479.13,331.43 501.6,261.98 509.51,261.98 509.51,255.85 480.66,255.85 480.66,261.98 491.13,262.23 479.38,303.34 462.53,261.98 
		469.94,261.72 469.94,255.85 429.09,255.85 429.09,262.49 436.74,262.23 442.36,277.3 433.68,302.06 414.28,262.49 422.7,262.49 
		422.7,255.85 	"/>
	<path class="st0" d="M553.49,252.72c-22.6,0-40.91,18.32-40.91,40.91c0,22.6,18.32,40.91,40.91,40.91s40.91-18.32,40.91-40.91
		C594.4,271.04,576.09,252.72,553.49,252.72z M553.49,326.45c-11,0-19.91-14.69-19.91-32.81c0-18.12,8.92-32.81,19.91-32.81
		c11,0,19.91,14.69,19.91,32.81C573.4,311.76,564.49,326.45,553.49,326.45z"/>
	<polygon class="st0" points="605,256.11 605,263 610.87,263 610.87,328.36 605,328.36 605,332.19 630.02,332.19 630.02,328.62 
		622.11,328.36 622.11,273.21 659.38,330.91 680.06,330.91 681.09,262.23 690.02,261.98 690.02,256.11 666.02,256.11 666.02,262.23 
		672.66,262.23 672.66,301.81 645.09,256.11 	"/>
</g>
<g id="레이어_4">
	<g>
		<path class="st1" d="M276.67,400.75c0,0,3.18-29.11,6.07-32.52c0,0-11.06,0.7-11.74,4.96c-0.67,4.26-3.35,29.28-3.35,29.28
			l-24.16,7.13c0,0,1.3-33.13,4.03-33.65c0,0-9.53,0.87-11.22,5.64c-1.69,4.77-1.99,32.17-1.99,32.17s-11.39,6.32,0.01,5.45
			c0,0-4.2,30.48-2.16,30.81c0,0-1.19,3.41,11.06-3.08l-0.05-31.49c0,0,23.14-5.15,22,25.32c0,0,3.24,2.38,10.72-2.57
			c0,0-2.25-22.8-0.05-29.79c0,0,6.3,2.54,10.03-6.83C285.87,401.58,286.54,396.98,276.67,400.75z M266.49,418.98
			c0,0-2.91-6.97-11.25-7.98l12.08-2.4L266.49,418.98z"/>
		<path class="st1" d="M294.5,374.5c0,0,4.24-8.52,8.84-3.76s-4.41,8.35-4.41,8.35S293.32,379.95,294.5,374.5z"/>
		<path class="st1" d="M408.48,341.45c0,0,3.75,8.6-1.3,37.5c0,0-14.43,20.4-16.14,11.72c0,0,8.64-22.31-2.76-22.63
			c-11.4-0.32-16.15,10.97-16.15,10.97l3.87-24.74c0,0,1.85-12.09-12.09-2.02c0,0,2.39,4.03-0.28,35.38c0,0-13.08,16.9-15.12,16.05
			c0,0,0.13-24.58,3.36-24.64c0,0-8.26-2.93-10.16,6.1c0,0-4.83-10.89-17.07-0.99c0,0-9.01,6.14-8.31,17.55
			c0,0-15.33,21.13-16.77,10.24c0,0,1.77-22.81,4.16-23.16c0,0-10.55,0.36-11.9,8.36c-1.02,6.05-0.98,8,1.63,18.16
			c0.73,2.84,3.07,4.99,5.96,5.47c4.69,0.77,11.87-0.54,17.97-12.27c0,0,7.52,16.67,22.98-1.91l0.01,4.26
			c0,0-19.54,17.06-17.83,21.65c0,0,0.18,6.47,2.23,9.53c2.05,3.06,7.77,12.24,17.08,6.44c9.31-5.8,6.36-38.31,6.36-38.31
			s13.19-9.57,14.67-14.21c-0.51,2.18-2.35,11.45,3.36,10.09l5.1-1.2l0.82-17.22c0,0,11.37-20.15,13.26-8.63
			c0,0-7.79,24.65,5.31,21.39c0,0,11.55-4.11,16.48-14.67c0,0-2.7,10.56,3.6,9.36l5.1-1.54l4.34-50.05
			C420.23,343.47,423.79,331.55,408.48,341.45z M334.79,443.03c0,0-4.42,1.03-4.62-11.4c0,0,0.84-4.43,9.51-13.8
			C339.68,417.83,341.62,439.78,334.79,443.03z M328.43,408.48c0,0-5.79-3.05-4.11-12.76c1.69-9.71,11.2-16.7,13.78-5.47
			c0,0,0.01,4.09,2.9,2.72C341,392.97,340.86,408.63,328.43,408.48z"/>
		<path class="st1" d="M432.08,341.53c0,0,4.24-8.52,8.84-3.76c4.6,4.76-4.41,8.35-4.41,8.35S430.9,346.98,432.08,341.53z"/>
		<path class="st1" d="M577.41,333.62c0.64,0.76-12.74,17.61-12.74,17.61c-10.83,9.56-11.75-3.52-11.75-3.52
			c4.46-6.39,5.95-28.22,5.95-28.22c2.42-2.17,18.5-3.35,18.5-3.35c10.2-9.21-17.62-2.27-17.62-2.27c1.14-5.36-1.16-9.06-1.16-9.06
			c-12.26-2.66-10.19,12.53-10.19,12.53c-1.66,2.05-16.84,4.75-16.84,4.75c-8.49,9.02,15.87,1.3,15.87,1.3l-0.77,20.25
			c-4.33,8.18-11.78,12.97-11.78,12.97c-3.27,3.07-6.34,4.7-7.08,0.98c0,0,8.64-22.31-2.76-22.63
			c-11.4-0.32-16.15,10.97-16.15,10.97l3.87-24.74c0,0,1.85-12.09-12.09-2.02c0,0,2.39,4.03-0.28,35.38c0,0-13.08,16.9-15.12,16.05
			c0,0,0.13-24.58,3.36-24.64c0,0-8.26-2.93-10.16,6.1c0,0-4.83-10.89-17.07-0.99c0,0-9.01,6.14-8.31,17.55
			c0,0-15.33,21.13-16.77,10.24c0,0,1.77-22.81,4.16-23.16c0,0-10.55,0.36-11.9,8.36c-1.02,6.05-0.98,8,1.63,18.16
			c0.73,2.84,3.07,4.99,5.96,5.47c4.69,0.77,11.87-0.54,17.97-12.27c0,0,7.52,16.67,22.98-1.91l0.01,4.26
			c0,0-19.54,17.06-17.83,21.65c0,0,0.18,6.47,2.23,9.53c2.05,3.06,7.77,12.24,17.08,6.44s6.36-38.31,6.36-38.31
			s13.19-9.57,14.67-14.21c-0.51,2.18-2.35,11.45,3.36,10.09l5.1-1.2l0.82-17.22c0,0,11.37-20.15,13.26-8.63
			c0,0-7.79,24.65,5.31,21.39c0,0,3.59-1.29,7.62-4.25l11.96-12.51c0.13,13.8,13.81,10.44,16.87,8.52
			c3.06-1.92,14.9-18.41,16.43-23.26S577.41,333.62,577.41,333.62z M471.55,409.94c0,0-4.42,1.03-4.62-11.4c0,0,0.84-4.43,9.51-13.8
			C476.44,384.74,478.38,406.69,471.55,409.94z M465.19,375.39c0,0-5.79-3.05-4.11-12.76c1.69-9.71,11.2-16.7,13.78-5.47
			c0,0,0.01,4.09,2.9,2.72C477.76,359.88,477.61,375.54,465.19,375.39z M550.44,342.74c0,0,0.99-18.21,2.35-19.24
			C554.15,322.47,551.47,342.9,550.44,342.74z"/>
	</g>
</g>
</svg>
